<svg width="22" height="19" viewBox="0 0 22 19" fill="none" xmlns="http://www.w3.org/2000/svg">
<path d="M21.8602 9.13044C21.6636 8.89825 16.9808 3.44505 10.9999 3.44505C5.01902 3.44505 0.33593 8.89825 0.139606 9.13022C-0.0465352 9.3505 -0.0465352 9.64927 0.139606 9.86955C0.33593 10.1017 5.01902 15.5549 10.9999 15.5549C16.9808 15.5549 21.6636 10.1017 21.8602 9.86974C22.0466 9.6495 22.0466 9.3505 21.8602 9.13044ZM10.9999 14.3022C6.59434 14.3022 2.77867 10.6828 1.64914 9.49957C2.7772 8.3153 6.58489 4.6978 10.9999 4.6978C15.4052 4.6978 19.2206 8.31656 20.3506 9.50043C19.2226 10.6847 15.4149 14.3022 10.9999 14.3022Z" fill="#8E8E8E"/>
<path d="M10.9999 5.74176C8.60046 5.74176 6.64825 7.42775 6.64825 9.50002C6.64825 11.5723 8.60046 13.2583 10.9999 13.2583C13.3994 13.2583 15.3516 11.5723 15.3516 9.50002C15.3516 7.42775 13.3994 5.74176 10.9999 5.74176ZM10.9999 12.0055C9.40019 12.0055 8.09884 10.8816 8.09884 9.50002C8.09884 8.11847 9.40024 6.99454 10.9999 6.99454C12.5996 6.99454 13.901 8.11847 13.901 9.50002C13.901 10.8816 12.5997 12.0055 10.9999 12.0055Z" fill="#8E8E8E"/>
</svg>
