<svg width="26" height="26" viewBox="0 0 26 26" fill="none" xmlns="http://www.w3.org/2000/svg">
<path d="M24.3761 13.2526C24.3761 12.3174 24.2987 11.6349 24.1311 10.9271H13.2333V15.1484H19.63C19.5011 16.1975 18.8047 17.7774 17.2571 18.839L17.2354 18.9803L20.681 21.5962L20.9198 21.6196C23.1122 19.6353 24.3761 16.7157 24.3761 13.2526Z" fill="#00AA11"/>
<path d="M13.2326 24.375C16.3664 24.375 18.9973 23.3638 20.919 21.6197L17.2563 18.839C16.2762 19.5089 14.9607 19.9766 13.2326 19.9766C10.1631 19.9766 7.55802 17.9923 6.62936 15.2496L6.49324 15.261L2.91038 17.9784L2.86353 18.106C4.77223 21.8218 8.69286 24.375 13.2326 24.375Z" fill="#34A853"/>
<path d="M6.63001 15.2497C6.38498 14.5419 6.24317 13.7835 6.24317 13C6.24317 12.2163 6.38498 11.458 6.61712 10.7502L6.61063 10.5995L2.98286 7.83847L2.86416 7.8938C2.07749 9.43576 1.6261 11.1673 1.6261 13C1.6261 14.8326 2.07749 16.5641 2.86416 18.106L6.63001 15.2497Z" fill="#FBBC05"/>
<path d="M13.2326 6.0233C15.4122 6.0233 16.8824 6.94594 17.7207 7.71696L20.9965 4.5825C18.9846 2.74987 16.3665 1.625 13.2326 1.625C8.69289 1.625 4.77224 4.17804 2.86353 7.89384L6.61649 10.7503C7.55805 8.00763 10.1632 6.0233 13.2326 6.0233Z" fill="#EB4335"/>
</svg>
